 <svg
              width="16px"
              height="16px"
              viewBox="0 0 0.3 0.3"
              fill="none"
              xmlns="http://www.w3.org/2000/svg"
            >
              <path
                fill-rule="evenodd"
                clip-rule="evenodd"
                d="M0.11 0.092a0.022 0.022 0 1 0 0 -0.045 0.022 0.022 0 0 0 0 0.045m0.08 0a0.022 0.022 0 1 0 0 -0.045 0.022 0.022 0 0 0 0 0.045M0.212 0.15a0.022 0.022 0 1 1 -0.045 0 0.022 0.022 0 0 1 0.045 0M0.11 0.173a0.022 0.022 0 1 0 0 -0.045 0.022 0.022 0 0 0 0 0.045m0.103 0.058a0.022 0.022 0 1 1 -0.045 0 0.022 0.022 0 0 1 0.045 0M0.11 0.253a0.022 0.022 0 1 0 0 -0.045 0.022 0.022 0 0 0 0 0.045"
                fill="#000000"
              />
            </svg>