<svg width="64" height="64" viewBox="0 0 64 64" fill="none" xmlns="http://www.w3.org/2000/svg">
<g clip-path="url(#clip0_59_114)">
<path d="M57 38.4571H60" stroke="#ED448D" stroke-width="3.5" stroke-linecap="round"/>
<path d="M55.9902 44.4906L58.888 45.2671" stroke="#ED448D" stroke-width="3.5" stroke-linecap="round"/>
<path d="M35.0742 58.8121C47.8354 57.4708 57.1143 46.2414 55.7994 33.7305L54.7835 24.0652C54.5205 21.5631 52.2383 19.7521 49.6861 20.0203C47.1339 20.2886 45.3826 23.529 45.6456 26.0312L45.1601 21.4122C44.8972 18.91 42.615 17.099 40.0627 17.3673C37.5105 17.6355 35.6547 19.8814 35.9177 22.3836L35.6003 19.3632C35.3373 16.861 33.0551 15.0501 30.5029 15.3183C27.9506 15.5866 26.0949 17.8324 26.3578 20.3346L26.6942 23.353C26.6942 23.353 25.8807 15.7949 25.0502 7.8929C24.6216 3.81536 20.9458 2.88623 19.8636 2.99996C17.3114 3.26821 15.4556 5.51409 15.7186 8.01627L18.1948 31.5754C17.9318 29.0732 15.6496 27.2622 13.0974 27.5305C10.5452 27.7987 8.68936 30.0446 8.95235 32.5468L9.58726 38.5876C10.9022 51.0985 22.3131 60.1533 35.0742 58.8121Z" fill="white"/>
<path d="M18.1948 31.5754L18.5982 35.4135M18.1948 31.5754L15.7186 8.01627C15.4556 5.51409 17.3114 3.26821 19.8636 2.99996C20.9458 2.88623 24.6216 3.81536 25.0502 7.8929C25.8807 15.7949 26.6942 23.353 26.6942 23.353M18.1948 31.5754C17.9318 29.0732 15.6496 27.2622 13.0974 27.5305C10.5452 27.7987 8.68936 30.0446 8.95235 32.5468L9.58726 38.5876C10.9022 51.0985 22.3131 60.1533 35.0742 58.8121C47.8354 57.4708 57.1143 46.2414 55.7994 33.7305L54.7835 24.0652C54.5205 21.5631 52.2383 19.7521 49.6861 20.0203C47.1339 20.2886 45.3826 23.529 45.6456 26.0312M26.6942 23.353L26.8675 25.0017M26.6942 23.353L26.3578 20.3346C26.0949 17.8324 27.9506 15.5866 30.5029 15.3183C33.0551 15.0501 35.3373 16.861 35.6003 19.3632L35.9177 22.3836M35.9177 22.3836L36.1306 24.4095M35.9177 22.3836C35.6547 19.8814 37.5105 17.6355 40.0627 17.3673C42.615 17.099 44.8972 18.91 45.1601 21.4122L45.6456 26.0312M45.6456 26.0312L45.4776 24.4326" stroke="#ED448D" stroke-width="3.5" stroke-linecap="round" stroke-linejoin="round"/>
<path d="M57 38.4571H60" stroke="#ED448D" stroke-width="3.5" stroke-linecap="round"/>
<path d="M55.9902 44.4906L58.888 45.2671" stroke="#ED448D" stroke-width="3.5" stroke-linecap="round"/>
<ellipse cx="19.5" cy="44.9571" rx="4.5" ry="1.5" fill="#FFBCD9"/>
<ellipse cx="47.125" cy="44.9571" rx="4.125" ry="1.5" fill="#FFBCD9"/>
<path d="M33 52.4571C36.1418 52.4571 38.8001 50.6282 40.2226 48.2089C40.4816 47.7683 40.6112 47.548 40.5892 47.2382C40.5725 47.0027 40.4146 46.6936 40.2335 46.5421C39.9953 46.3427 39.6937 46.3141 39.0904 46.2569C37.6235 46.1177 35.5869 45.9571 34 45.9571C32.0742 45.9571 29.4863 46.1936 28.0579 46.3413C27.6996 46.3783 27.5204 46.3969 27.3301 46.5109C27.1952 46.5918 27.0112 46.7933 26.943 46.935C26.8467 47.135 26.8452 47.2592 26.8423 47.5075C26.8074 50.4467 30.2716 52.4571 33 52.4571Z" fill="#ED448D" stroke="#ED448D" stroke-width="3.5" stroke-linecap="round" stroke-linejoin="round"/>
<path d="M33 51.4571C34.4096 51.4571 35.4162 50.8464 36.1087 50.0147C36.3599 49.7129 36.4856 49.562 36.5043 49.2325C36.5172 49.0053 36.3694 48.6226 36.2073 48.463C35.972 48.2315 35.7244 48.1967 35.229 48.127C34.566 48.0337 33.783 47.9571 33 47.9571C32.217 47.9571 31.434 48.0337 30.771 48.127C30.2756 48.1967 30.028 48.2315 29.7927 48.463C29.6306 48.6226 29.4828 49.0053 29.4957 49.2325C29.5144 49.562 29.6401 49.7129 29.8913 50.0147C30.5838 50.8464 31.5904 51.4571 33 51.4571Z" fill="#FFBCD9"/>
<path d="M21 40.8571C21.6495 39.4362 23.0175 38.4571 24.6 38.4571C26.1825 38.4571 27.5505 39.4362 28.2 40.8571" stroke="#ED448D" stroke-width="3.5" stroke-linecap="round"/>
<path d="M43 40.8571C43.6495 39.4362 45.0175 38.4571 46.6 38.4571C48.1825 38.4571 49.5505 39.4362 50.2 40.8571" stroke="#ED448D" stroke-width="3.5" stroke-linecap="round"/>
<path d="M52 50.4571L54.5981 51.9571" stroke="#ED448D" stroke-width="3.5" stroke-linecap="round"/>
<path d="M8 38.4571H5" stroke="#ED448D" stroke-width="3.5" stroke-linecap="round"/>
<path d="M9.00977 44.4906L6.11199 45.2671" stroke="#ED448D" stroke-width="3.5" stroke-linecap="round"/>
<path d="M13 50.4571L10.4019 51.9571" stroke="#ED448D" stroke-width="3.5" stroke-linecap="round"/>
<path d="M36.4629 43.4794C34.0802 43.4794 31.1557 38.709 36.4629 38.709C41.7701 38.709 38.8457 43.4794 36.4629 43.4794Z" fill="#ED448D"/>
</g>
<defs>
<clipPath id="clip0_59_114">
<rect width="64" height="64" fill="white"/>
</clipPath>
</defs>
</svg>
