<svg width="90" height="90" viewBox="0 0 90 90" fill="none" xmlns="http://www.w3.org/2000/svg">
<path d="M70 52.8571H73" stroke="#EF5094" stroke-width="3" stroke-linecap="round"/>
<path d="M68.9902 58.8907L71.888 59.6671" stroke="#EF5094" stroke-width="3" stroke-linecap="round"/>
<path d="M69 52.8571H72" stroke="white" stroke-width="3" stroke-linecap="round"/>
<path d="M67.9902 58.8906L70.888 59.6671" stroke="white" stroke-width="3" stroke-linecap="round"/>
<path d="M64 64.8571L66.5981 66.3571" stroke="white" stroke-width="3" stroke-linecap="round"/>
<path d="M20 52.8571H17" stroke="white" stroke-width="3" stroke-linecap="round"/>
<path d="M21.0098 58.8906L18.112 59.6671" stroke="white" stroke-width="3" stroke-linecap="round"/>
<path d="M25 64.8571L22.4019 66.3571" stroke="white" stroke-width="3" stroke-linecap="round"/>
<path d="M48.0742 73.2121C60.8354 71.8708 70.1143 60.6414 68.7994 48.1305L67.7835 38.4652C67.5205 35.9631 65.2383 34.1521 62.6861 34.4203C60.1339 34.6886 58.2781 36.9345 58.5411 39.4367L58.1601 35.8122C57.8972 33.31 55.615 31.499 53.0627 31.7673C50.5105 32.0355 48.6547 34.2814 48.9177 36.7836L48.6003 33.7632C48.3373 31.261 46.0551 29.45 43.5029 29.7183C40.9506 29.9865 39.0949 32.2324 39.3578 34.7346L39.6753 37.755C39.8095 39.0321 38.8807 30.1949 38.0502 22.2929C37.6216 18.2154 33.9458 17.2862 32.8636 17.4C30.3114 17.6682 28.4556 19.9141 28.7186 22.4163L31.1948 45.9754C30.9318 43.4732 28.6496 41.6622 26.0974 41.9305C23.5452 42.1987 21.6894 44.4446 21.9523 46.9468L22.5873 52.9876C23.9022 65.4985 35.3131 74.5533 48.0742 73.2121Z" fill="white"/>
<path d="M31.1948 45.9754L31.7027 50.808M31.1948 45.9754L28.7186 22.4163C28.4556 19.9141 30.3114 17.6682 32.8636 17.4C33.9458 17.2862 37.6216 18.2154 38.0502 22.2929C38.8807 30.1949 39.8095 39.0321 39.6753 37.755M31.1948 45.9754C30.9318 43.4732 28.6496 41.6622 26.0974 41.9305C23.5452 42.1987 21.6894 44.4446 21.9523 46.9468L22.5873 52.9876C23.9022 65.4985 35.3131 74.5533 48.0742 73.2121C60.8354 71.8708 70.1143 60.6414 68.7994 48.1305L67.7835 38.4652C67.5205 35.9631 65.2383 34.1521 62.6861 34.4203C60.1339 34.6886 58.2781 36.9345 58.5411 39.4367M39.6753 37.755L39.8865 39.3997M39.6753 37.755L39.3578 34.7346C39.0949 32.2324 40.9506 29.9865 43.5029 29.7183C46.0551 29.45 48.3373 31.261 48.6003 33.7632L48.9177 36.7836M48.9177 36.7836L49.2352 39.804M48.9177 36.7836C48.6547 34.2814 50.5105 32.0355 53.0627 31.7673C55.615 31.499 57.8972 33.31 58.1601 35.8122L58.5411 39.4367M58.5411 39.4367L58.4776 38.8326" stroke="white" stroke-width="3" stroke-linecap="round" stroke-linejoin="round"/>
<path d="M31.1948 45.9754L31.5982 49.8135M31.1948 45.9754L28.7186 22.4163C28.4556 19.9141 30.3114 17.6682 32.8636 17.4C33.9458 17.2862 37.6216 18.2154 38.0502 22.2929C38.8807 30.1949 39.6942 37.753 39.6942 37.753M31.1948 45.9754C30.9318 43.4732 28.6496 41.6622 26.0974 41.9305C23.5452 42.1987 21.6894 44.4446 21.9523 46.9468L22.5873 52.9876C23.9022 65.4985 35.3131 74.5533 48.0742 73.2121C60.8354 71.8708 70.1143 60.6414 68.7994 48.1305L67.7835 38.4652C67.5205 35.9631 65.2383 34.1521 62.6861 34.4203C60.1339 34.6886 58.3826 37.929 58.6456 40.4312M39.6942 37.753L39.8675 39.4016M39.6942 37.753L39.3578 34.7346C39.0949 32.2324 40.9506 29.9865 43.5029 29.7183C46.0551 29.45 48.3373 31.261 48.6003 33.7632L48.9177 36.7836M48.9177 36.7836L49.1306 38.8095M48.9177 36.7836C48.6547 34.2814 50.5105 32.0355 53.0627 31.7673C55.615 31.499 57.8972 33.31 58.1601 35.8122L58.6456 40.4312M58.6456 40.4312L58.4776 38.8326" stroke="white" stroke-width="3" stroke-linecap="round" stroke-linejoin="round"/>
<path d="M70 52.8571H73" stroke="white" stroke-width="3" stroke-linecap="round"/>
<path d="M68.9902 58.8907L71.888 59.6671" stroke="white" stroke-width="3" stroke-linecap="round"/>
<path d="M65 64.8571L67.5981 66.3571" stroke="white" stroke-width="3" stroke-linecap="round"/>
<path d="M21 52.8571H18" stroke="white" stroke-width="3" stroke-linecap="round"/>
<path d="M22.0098 58.8907L19.112 59.6671" stroke="white" stroke-width="3" stroke-linecap="round"/>
<path d="M26 64.8571L23.4019 66.3571" stroke="white" stroke-width="3" stroke-linecap="round"/>
<g filter="url(#filter0_d_59_74)">
<path d="M48.0742 73.2121C60.8354 71.8708 70.1143 60.6414 68.7994 48.1305L67.7835 38.4652C67.5205 35.9631 65.2383 34.1521 62.6861 34.4203C60.1339 34.6886 58.3826 37.929 58.6456 40.4312L58.1601 35.8122C57.8972 33.31 55.615 31.499 53.0627 31.7673C50.5105 32.0355 48.6547 34.2814 48.9177 36.7836L48.6003 33.7632C48.3373 31.261 46.0551 29.45 43.5029 29.7183C40.9506 29.9865 39.0949 32.2324 39.3578 34.7346L39.6942 37.753C39.6942 37.753 38.8807 30.1949 38.0502 22.2929C37.6216 18.2154 33.9458 17.2862 32.8636 17.4C30.3114 17.6682 28.4556 19.9141 28.7186 22.4163L31.1948 45.9754C30.9318 43.4732 28.6496 41.6622 26.0974 41.9305C23.5452 42.1987 21.6894 44.4446 21.9523 46.9468L22.5873 52.9876C23.9022 65.4985 35.3131 74.5533 48.0742 73.2121Z" fill="white"/>
<path d="M31.1948 45.9754L31.5982 49.8135M31.1948 45.9754L28.7186 22.4163C28.4556 19.9141 30.3114 17.6682 32.8636 17.4C33.9458 17.2862 37.6216 18.2154 38.0502 22.2929C38.8807 30.1949 39.6942 37.753 39.6942 37.753M31.1948 45.9754C30.9318 43.4732 28.6496 41.6622 26.0974 41.9305C23.5452 42.1987 21.6894 44.4446 21.9523 46.9468L22.5873 52.9876C23.9022 65.4985 35.3131 74.5533 48.0742 73.2121C60.8354 71.8708 70.1143 60.6414 68.7994 48.1305L67.7835 38.4652C67.5205 35.9631 65.2383 34.1521 62.6861 34.4203C60.1339 34.6886 58.3826 37.929 58.6456 40.4312M39.6942 37.753L39.8675 39.4016M39.6942 37.753L39.3578 34.7346C39.0949 32.2324 40.9506 29.9865 43.5029 29.7183C46.0551 29.45 48.3373 31.261 48.6003 33.7632L48.9177 36.7836M48.9177 36.7836L49.1306 38.8095M48.9177 36.7836C48.6547 34.2814 50.5105 32.0355 53.0627 31.7673C55.615 31.499 57.8972 33.31 58.1601 35.8122L58.6456 40.4312M58.6456 40.4312L58.4776 38.8326" stroke="#EF5094" stroke-width="3" stroke-linecap="round" stroke-linejoin="round"/>
</g>
<path d="M70 52.8571H73" stroke="#EF5094" stroke-width="3" stroke-linecap="round"/>
<path d="M68.9902 58.8907L71.888 59.6671" stroke="#EF5094" stroke-width="3" stroke-linecap="round"/>
<ellipse cx="32.5" cy="59.3571" rx="4.5" ry="1.5" fill="#FFBCD9"/>
<ellipse cx="60.125" cy="59.3571" rx="4.125" ry="1.5" fill="#FFBCD9"/>
<circle cx="46.5" cy="49.3571" r="1.5" fill="white"/>
<path d="M46 66.8571C49.1418 66.8571 51.8001 65.0281 53.2226 62.6089C53.4816 62.1683 53.6112 61.948 53.5892 61.6382C53.5725 61.4027 53.4146 61.0936 53.2335 60.9421C52.9953 60.7427 52.6937 60.7141 52.0904 60.6569C50.6235 60.5177 48.5869 60.3571 47 60.3571C45.0742 60.3571 42.4863 60.5936 41.0579 60.7413C40.6996 60.7783 40.5204 60.7969 40.3301 60.9109C40.1952 60.9917 40.0112 61.1933 39.943 61.335C39.8467 61.535 39.8452 61.6592 39.8423 61.9075C39.8074 64.8467 43.2716 66.8571 46 66.8571Z" fill="#EF5094" stroke="#EF5094" stroke-width="3" stroke-linecap="round" stroke-linejoin="round"/>
<path d="M46 65.8571C47.4096 65.8571 48.4162 65.2464 49.1087 64.4147C49.3599 64.1129 49.4856 63.962 49.5043 63.6324C49.5172 63.4053 49.3694 63.0226 49.2073 62.863C48.972 62.6315 48.7244 62.5967 48.229 62.527C47.566 62.4337 46.783 62.3571 46 62.3571C45.217 62.3571 44.434 62.4337 43.771 62.527C43.2756 62.5967 43.028 62.6315 42.7927 62.863C42.6306 63.0226 42.4828 63.4053 42.4957 63.6324C42.5144 63.962 42.6401 64.1129 42.8913 64.4147C43.5838 65.2464 44.5904 65.8571 46 65.8571Z" fill="#FFBCD9"/>
<path d="M34 55.2571C34.6495 53.8362 36.0175 52.8571 37.6 52.8571C39.1825 52.8571 40.5505 53.8362 41.2 55.2571" stroke="#EF5094" stroke-width="3" stroke-linecap="round"/>
<path d="M56 55.2571C56.6495 53.8362 58.0175 52.8571 59.6 52.8571C61.1825 52.8571 62.5505 53.8362 63.2 55.2571" stroke="#EF5094" stroke-width="3" stroke-linecap="round"/>
<path d="M65 64.8571L67.5981 66.3571" stroke="#EF5094" stroke-width="3" stroke-linecap="round"/>
<path d="M21 52.8571H18" stroke="#EF5094" stroke-width="3" stroke-linecap="round"/>
<path d="M22.0098 58.8907L19.112 59.6671" stroke="#EF5094" stroke-width="3" stroke-linecap="round"/>
<path d="M26 64.8571L23.4019 66.3571" stroke="#EF5094" stroke-width="3" stroke-linecap="round"/>
<path d="M49.4629 57.8794C47.0802 57.8794 44.1557 53.109 49.4629 53.109C54.7701 53.109 51.8457 57.8794 49.4629 57.8794Z" fill="#EF5094"/>
<defs>
<filter id="filter0_d_59_74" x="6.42725" y="1.8912" width="77.9966" height="86.9525" filterUnits="userSpaceOnUse" color-interpolation-filters="sRGB">
<feFlood flood-opacity="0" result="BackgroundImageFix"/>
<feColorMatrix in="SourceAlpha" type="matrix" values="0 0 0 0 0 0 0 0 0 0 0 0 0 0 0 0 0 0 127 0" result="hardAlpha"/>
<feOffset/>
<feGaussianBlur stdDeviation="7"/>
<feComposite in2="hardAlpha" operator="out"/>
<feColorMatrix type="matrix" values="0 0 0 0 0.937255 0 0 0 0 0.313726 0 0 0 0 0.580392 0 0 0 0.2 0"/>
<feBlend mode="normal" in2="BackgroundImageFix" result="effect1_dropShadow_59_74"/>
<feBlend mode="normal" in="SourceGraphic" in2="effect1_dropShadow_59_74" result="shape"/>
</filter>
</defs>
</svg>
