<svg width="30px" height="30px" viewBox="0 0 0.8 0.8" xmlns="http://www.w3.org/2000/svg" fill="#000"><path fill-rule="evenodd" clip-rule="evenodd" d="M0.206 0.109a0.35 0.35 0 1 1 0.389 0.582A0.35 0.35 0 0 1 0.206 0.109zm0.028 0.54a0.3 0.3 0 1 0 0.333 -0.499 0.3 0.3 0 0 0 -0.333 0.499M0.325 0.35a0.05 0.05 0 1 1 -0.1 0 0.05 0.05 0 0 1 0.1 0m0.25 0a0.05 0.05 0 1 1 -0.1 0 0.05 0.05 0 0 1 0.1 0M0.4 0.55a0.15 0.15 0 0 1 -0.133 -0.079l-0.044 0.024a0.2 0.2 0 0 0 0.356 -0.008l-0.045 -0.022A0.15 0.15 0 0 1 0.4 0.55"/></svg>